<?xml version="1.0" standalone="no"?>
<svg version="1.1" xmlns="http://www.w3.org/2000/svg"
 width="944" height="808" viewBox="0 0 944 808">
<rect width="944" height="808" fill="#fefefe"/>
<!-- Gray elements: arcs and MRM text -->
<g transform="translate(0,0) scale(1,1)">
<g transform="translate(0.000000,808.000000) scale(0.100000,-0.100000)"
fill="#75818b" stroke="none">
<path d="M3905 7114 c-1123 -64 -2117 -829 -2459 -1891 -137 -428 -162 -917
-70 -1383 122 -617 506 -1215 1038 -1615 l77 -58 49 48 49 48 -89 66 c-670
499 -1045 1242 -1044 2071 1 709 269 1343 775 1835 1020 991 2599 995 3618 10
473 -458 780 -1148 781 -1757 l0 -68 70 0 70 0 0 43 c0 62 -27 303 -45 409
-232 1334 -1471 2320 -2820 2242z"/>
<path d="M3871 6648 c-361 -27 -760 -166 -1063 -369 -1334 -898 -1368 -2801
-66 -3730 77 -55 83 -57 100 -42 28 25 22 35 -55 85 -171 112 -367 301 -506
488 -813 1095 -444 2649 776 3273 1183 605 2650 3 3072 -1259 64 -189 119
-494 121 -666 0 -13 8 -18 27 -18 l26 0 -6 138 c-52 1108 -955 2013 -2097
2102 -141 11 -169 11 -329 -2z"/>
<path d="M3765 6355 c-858 -111 -1574 -829 -1701 -1705 -24 -170 -15 -499 19
-665 74 -353 229 -669 462 -937 149 -172 445 -398 445 -339 0 4 -51 49 -112
98 -1159 928 -981 2662 339 3322 234 117 551 201 760 201 70 0 93 6 93 26 0
18 -161 17 -305 -1z"/>
<path d="M3880 5681 c-403 -79 -759 -348 -935 -706 -297 -608 -109 -1301 462
-1700 102 -71 117 -78 137 -56 24 27 21 33 -47 76 -522 331 -745 931 -557
1496 118 354 438 665 810 787 629 207 1333 -159 1550 -806 72 -216 78 -477 15
-771 -20 -97 -14 -99 24 -7 101 243 109 554 20 820 -120 360 -416 667 -774
801 -214 81 -494 107 -705 66z"/>
<path d="M6237 4163 c-13 -21 -61 -100 -106 -176 -106 -179 -189 -307 -198
-307 -5 0 -15 12 -24 28 -9 15 -73 122 -142 237 -70 116 -131 218 -137 228 -8
14 -25 17 -95 17 l-85 0 0 -484 0 -484 76 -4 c51 -2 78 1 81 8 2 7 3 163 1
348 -2 185 -1 336 2 335 3 0 64 -90 135 -200 164 -252 161 -249 191 -249 20 0
35 17 82 90 31 50 98 153 148 230 l91 139 7 -91 c3 -50 6 -209 6 -352 l0 -261
75 -1 75 -1 -2 491 -3 491 -77 3 -77 3 -24 -38z"/>
<path d="M6620 3710 l0 -490 80 0 80 0 0 425 0 424 118 -5 c215 -11 272 -48
272 -181 0 -105 -66 -153 -210 -153 -77 0 -93 -3 -110 -20 -27 -27 -25 -38 8
-46 15 -3 34 -8 43 -10 19 -5 96 -104 232 -296 l98 -138 90 0 c70 0 88 3 83
13 -5 6 -63 94 -131 195 -68 101 -123 189 -123 197 0 7 20 23 45 35 155 75
183 332 49 449 -80 71 -177 89 -491 90 l-133 1 0 -490z"/>
<path d="M7530 3705 l0 -485 53 0 c28 0 62 -3 74 -6 l23 -6 2 358 3 358 105
-159 c59 -88 126 -193 150 -232 41 -66 48 -73 78 -73 31 0 37 7 171 213 77
116 146 221 155 232 14 18 15 -12 16 -332 l0 -353 75 0 75 0 0 485 0 485 -84
0 -84 0 -38 -67 c-51 -92 -171 -291 -231 -385 l-50 -78 -90 143 c-49 78 -122
197 -163 265 l-73 122 -83 0 -84 0 0 -485z"/>
<path d="M6265 2690 c10 -11 25 -20 33 -20 12 0 11 5 -6 20 -12 11 -27 20 -33
20 -7 0 -5 -8 6 -20z"/>
</g>
</g>
<!-- Pink ribbon -->
<g transform="translate(0,0) scale(1,1)">
<g transform="translate(0.000000,808.000000) scale(0.100000,-0.100000)"
fill="#f76d94" stroke="none">
<path d="M4225 5414 c-90 -21 -118 -30 -173 -56 -50 -24 -66 -37 -83 -70 -40
-78 -63 -286 -38 -341 l11 -24 61 33 c212 112 533 109 707 -6 53 -35 65 -29
73 37 11 99 -28 334 -53 318 -4 -3 -10 2 -13 10 -7 17 -68 49 -147 77 -54 20
-292 35 -345 22z"/>
<path d="M3824 5139 c-138 -213 -202 -519 -155 -734 27 -122 122 -365 142
-365 5 0 9 -7 9 -16 0 -40 311 -499 357 -527 7 -4 13 -12 13 -17 0 -25 525
-671 698 -858 22 -24 59 -67 83 -95 91 -108 259 -299 424 -482 93 -104 190
-212 214 -240 24 -27 84 -96 134 -153 49 -56 95 -102 101 -102 8 0 10 81 8
296 -2 163 1 294 5 291 5 -3 85 -13 178 -21 94 -9 187 -18 208 -20 28 -3 37
-1 35 9 -2 7 -138 137 -303 290 -612 567 -716 665 -980 930 -348 347 -492 511
-704 800 -325 443 -431 687 -418 962 3 68 4 123 1 123 -2 0 -25 -32 -50 -71z"/>
<path d="M4818 5204 c-3 -3 -1 -22 5 -42 60 -204 -52 -541 -308 -928 -52 -79
-95 -151 -95 -160 0 -19 31 -59 183 -231 55 -62 104 -113 111 -113 6 0 41 48
78 108 291 472 331 819 138 1202 -43 84 -104 173 -112 164z"/>
<path d="M3947 3532 c-95 -117 -352 -386 -850 -891 -342 -347 -534 -548 -528
-554 6 -6 56 -6 138 1 70 6 155 13 188 14 l60 3 3 -292 c2 -308 4 -318 46
-266 11 15 112 136 224 268 401 474 740 883 887 1070 81 105 163 208 180 230
42 52 41 53 -56 176 -46 58 -115 146 -153 197 -78 106 -87 109 -139 44z"/>
</g>
</g>
</svg>